<mxfile host="Electron" modified="2023-04-18T19:21:56.995Z" agent="Mozilla/5.0 (Windows NT 10.0; Win64; x64) AppleWebKit/537.36 (KHTML, like Gecko) draw.io/21.1.2 Chrome/106.0.5249.199 Electron/21.4.3 Safari/537.36" etag="7dI-1z4yfDkF2GfyoQr_" version="21.1.2" type="device">
  <diagram id="C5RBs43oDa-KdzZeNtuy" name="Page-1">
    <mxGraphModel dx="2022" dy="703" grid="1" gridSize="10" guides="1" tooltips="1" connect="1" arrows="1" fold="1" page="1" pageScale="1" pageWidth="827" pageHeight="1169" math="0" shadow="0">
      <root>
        <mxCell id="WIyWlLk6GJQsqaUBKTNV-0" />
        <mxCell id="WIyWlLk6GJQsqaUBKTNV-1" parent="WIyWlLk6GJQsqaUBKTNV-0" />
        <mxCell id="g5gK1ljJeK4k7wGDAAqj-0" value="Client" style="html=1;whiteSpace=wrap;" vertex="1" parent="WIyWlLk6GJQsqaUBKTNV-1">
          <mxGeometry x="29" y="99" width="120" height="40" as="geometry" />
        </mxCell>
        <mxCell id="g5gK1ljJeK4k7wGDAAqj-1" value="Context" style="swimlane;fontStyle=1;align=center;verticalAlign=top;childLayout=stackLayout;horizontal=1;startSize=26;horizontalStack=0;resizeParent=1;resizeParentMax=0;resizeLast=0;collapsible=1;marginBottom=0;whiteSpace=wrap;html=1;" vertex="1" parent="WIyWlLk6GJQsqaUBKTNV-1">
          <mxGeometry x="249" y="60" width="230" height="118" as="geometry" />
        </mxCell>
        <mxCell id="g5gK1ljJeK4k7wGDAAqj-2" value="- flyweight&lt;br&gt;-&amp;nbsp;extrinsicState&lt;br&gt;" style="text;strokeColor=none;fillColor=none;align=left;verticalAlign=top;spacingLeft=4;spacingRight=4;overflow=hidden;rotatable=0;points=[[0,0.5],[1,0.5]];portConstraint=eastwest;whiteSpace=wrap;html=1;" vertex="1" parent="g5gK1ljJeK4k7wGDAAqj-1">
          <mxGeometry y="26" width="230" height="44" as="geometry" />
        </mxCell>
        <mxCell id="g5gK1ljJeK4k7wGDAAqj-3" value="" style="line;strokeWidth=1;fillColor=none;align=left;verticalAlign=middle;spacingTop=-1;spacingLeft=3;spacingRight=3;rotatable=0;labelPosition=right;points=[];portConstraint=eastwest;strokeColor=inherit;" vertex="1" parent="g5gK1ljJeK4k7wGDAAqj-1">
          <mxGeometry y="70" width="230" height="8" as="geometry" />
        </mxCell>
        <mxCell id="g5gK1ljJeK4k7wGDAAqj-4" value="+&amp;nbsp;Context(intrinsicState, extrinsicState)&lt;br&gt;+ operation()" style="text;strokeColor=none;fillColor=none;align=left;verticalAlign=top;spacingLeft=4;spacingRight=4;overflow=hidden;rotatable=0;points=[[0,0.5],[1,0.5]];portConstraint=eastwest;whiteSpace=wrap;html=1;" vertex="1" parent="g5gK1ljJeK4k7wGDAAqj-1">
          <mxGeometry y="78" width="230" height="40" as="geometry" />
        </mxCell>
        <mxCell id="g5gK1ljJeK4k7wGDAAqj-5" value="" style="endArrow=open;html=1;endSize=12;startArrow=diamondThin;startSize=14;startFill=1;edgeStyle=orthogonalEdgeStyle;align=left;verticalAlign=bottom;rounded=0;" edge="1" parent="WIyWlLk6GJQsqaUBKTNV-1" source="g5gK1ljJeK4k7wGDAAqj-0" target="g5gK1ljJeK4k7wGDAAqj-1">
          <mxGeometry x="-1" y="3" relative="1" as="geometry">
            <mxPoint x="279" y="227" as="sourcePoint" />
            <mxPoint x="439" y="227" as="targetPoint" />
          </mxGeometry>
        </mxCell>
        <mxCell id="g5gK1ljJeK4k7wGDAAqj-6" value="FlyweightFactory" style="swimlane;fontStyle=1;align=center;verticalAlign=top;childLayout=stackLayout;horizontal=1;startSize=26;horizontalStack=0;resizeParent=1;resizeParentMax=0;resizeLast=0;collapsible=1;marginBottom=0;whiteSpace=wrap;html=1;" vertex="1" parent="WIyWlLk6GJQsqaUBKTNV-1">
          <mxGeometry x="569" y="76" width="230" height="86" as="geometry" />
        </mxCell>
        <mxCell id="g5gK1ljJeK4k7wGDAAqj-7" value="- cache: Flyweight[]" style="text;strokeColor=none;fillColor=none;align=left;verticalAlign=top;spacingLeft=4;spacingRight=4;overflow=hidden;rotatable=0;points=[[0,0.5],[1,0.5]];portConstraint=eastwest;whiteSpace=wrap;html=1;" vertex="1" parent="g5gK1ljJeK4k7wGDAAqj-6">
          <mxGeometry y="26" width="230" height="26" as="geometry" />
        </mxCell>
        <mxCell id="g5gK1ljJeK4k7wGDAAqj-8" value="" style="line;strokeWidth=1;fillColor=none;align=left;verticalAlign=middle;spacingTop=-1;spacingLeft=3;spacingRight=3;rotatable=0;labelPosition=right;points=[];portConstraint=eastwest;strokeColor=inherit;" vertex="1" parent="g5gK1ljJeK4k7wGDAAqj-6">
          <mxGeometry y="52" width="230" height="8" as="geometry" />
        </mxCell>
        <mxCell id="g5gK1ljJeK4k7wGDAAqj-9" value="+ getFlyweight(intrinsicState): Flyweight" style="text;strokeColor=none;fillColor=none;align=left;verticalAlign=top;spacingLeft=4;spacingRight=4;overflow=hidden;rotatable=0;points=[[0,0.5],[1,0.5]];portConstraint=eastwest;whiteSpace=wrap;html=1;" vertex="1" parent="g5gK1ljJeK4k7wGDAAqj-6">
          <mxGeometry y="60" width="230" height="26" as="geometry" />
        </mxCell>
        <mxCell id="g5gK1ljJeK4k7wGDAAqj-10" value="Flyweight" style="swimlane;fontStyle=1;align=center;verticalAlign=top;childLayout=stackLayout;horizontal=1;startSize=26;horizontalStack=0;resizeParent=1;resizeParentMax=0;resizeLast=0;collapsible=1;marginBottom=0;whiteSpace=wrap;html=1;" vertex="1" parent="WIyWlLk6GJQsqaUBKTNV-1">
          <mxGeometry x="569" y="230" width="230" height="86" as="geometry" />
        </mxCell>
        <mxCell id="g5gK1ljJeK4k7wGDAAqj-11" value="-&amp;nbsp;intrinsicState" style="text;strokeColor=none;fillColor=none;align=left;verticalAlign=top;spacingLeft=4;spacingRight=4;overflow=hidden;rotatable=0;points=[[0,0.5],[1,0.5]];portConstraint=eastwest;whiteSpace=wrap;html=1;" vertex="1" parent="g5gK1ljJeK4k7wGDAAqj-10">
          <mxGeometry y="26" width="230" height="26" as="geometry" />
        </mxCell>
        <mxCell id="g5gK1ljJeK4k7wGDAAqj-12" value="" style="line;strokeWidth=1;fillColor=none;align=left;verticalAlign=middle;spacingTop=-1;spacingLeft=3;spacingRight=3;rotatable=0;labelPosition=right;points=[];portConstraint=eastwest;strokeColor=inherit;" vertex="1" parent="g5gK1ljJeK4k7wGDAAqj-10">
          <mxGeometry y="52" width="230" height="8" as="geometry" />
        </mxCell>
        <mxCell id="g5gK1ljJeK4k7wGDAAqj-13" value="+ operation(extrinsicState)" style="text;strokeColor=none;fillColor=none;align=left;verticalAlign=top;spacingLeft=4;spacingRight=4;overflow=hidden;rotatable=0;points=[[0,0.5],[1,0.5]];portConstraint=eastwest;whiteSpace=wrap;html=1;" vertex="1" parent="g5gK1ljJeK4k7wGDAAqj-10">
          <mxGeometry y="60" width="230" height="26" as="geometry" />
        </mxCell>
        <mxCell id="g5gK1ljJeK4k7wGDAAqj-14" value="" style="endArrow=open;html=1;endSize=12;startArrow=diamondThin;startSize=14;startFill=0;edgeStyle=orthogonalEdgeStyle;rounded=0;" edge="1" parent="WIyWlLk6GJQsqaUBKTNV-1" source="g5gK1ljJeK4k7wGDAAqj-6" target="g5gK1ljJeK4k7wGDAAqj-10">
          <mxGeometry relative="1" as="geometry">
            <mxPoint x="279" y="270" as="sourcePoint" />
            <mxPoint x="439" y="270" as="targetPoint" />
            <mxPoint as="offset" />
          </mxGeometry>
        </mxCell>
        <mxCell id="g5gK1ljJeK4k7wGDAAqj-17" value="" style="endArrow=open;endFill=1;endSize=12;html=1;rounded=0;edgeStyle=orthogonalEdgeStyle;" edge="1" parent="WIyWlLk6GJQsqaUBKTNV-1" source="g5gK1ljJeK4k7wGDAAqj-1" target="g5gK1ljJeK4k7wGDAAqj-10">
          <mxGeometry width="160" relative="1" as="geometry">
            <mxPoint x="239" y="147" as="sourcePoint" />
            <mxPoint x="490" y="340" as="targetPoint" />
            <Array as="points">
              <mxPoint x="364" y="280" />
            </Array>
          </mxGeometry>
        </mxCell>
        <mxCell id="g5gK1ljJeK4k7wGDAAqj-18" value="" style="endArrow=open;endFill=1;endSize=12;html=1;rounded=0;" edge="1" parent="WIyWlLk6GJQsqaUBKTNV-1" source="g5gK1ljJeK4k7wGDAAqj-1" target="g5gK1ljJeK4k7wGDAAqj-6">
          <mxGeometry width="160" relative="1" as="geometry">
            <mxPoint x="411" y="150" as="sourcePoint" />
            <mxPoint x="507" y="207" as="targetPoint" />
          </mxGeometry>
        </mxCell>
        <mxCell id="g5gK1ljJeK4k7wGDAAqj-20" value="&amp;nbsp;&amp;nbsp;Context(intrinsicState, extrinsicState) {&lt;br&gt;&lt;span style=&quot;white-space: pre;&quot;&gt;	&lt;/span&gt;this.flyweight = factory.getFlyweight(intrinsicState);&lt;br&gt;&lt;span style=&quot;background-color: initial;&quot;&gt;&lt;span style=&quot;white-space: pre;&quot;&gt;	&lt;/span&gt;this.extrinsicState =&amp;nbsp;extrinsicState;&lt;/span&gt;&lt;br&gt;&amp;nbsp; }&lt;br&gt;&lt;br&gt;&amp;nbsp; operation() {&lt;br&gt;&lt;span style=&quot;white-space: pre;&quot;&gt;	&lt;/span&gt;flyweight.operation(extrinsicState);&lt;br&gt;&amp;nbsp; }" style="shape=note;whiteSpace=wrap;html=1;backgroundOutline=1;darkOpacity=0.05;size=17;align=left;verticalAlign=top;" vertex="1" parent="WIyWlLk6GJQsqaUBKTNV-1">
          <mxGeometry x="-10" y="222" width="320" height="138" as="geometry" />
        </mxCell>
        <mxCell id="g5gK1ljJeK4k7wGDAAqj-21" value="" style="endArrow=none;dashed=1;html=1;rounded=0;" edge="1" parent="WIyWlLk6GJQsqaUBKTNV-1" source="g5gK1ljJeK4k7wGDAAqj-20" target="g5gK1ljJeK4k7wGDAAqj-1">
          <mxGeometry width="50" height="50" relative="1" as="geometry">
            <mxPoint x="220" y="212" as="sourcePoint" />
            <mxPoint x="270" y="162" as="targetPoint" />
          </mxGeometry>
        </mxCell>
        <mxCell id="g5gK1ljJeK4k7wGDAAqj-22" value="&amp;nbsp; getFlyweight(intrinsicState) {&lt;br&gt;&lt;span style=&quot;white-space: pre;&quot;&gt;	&lt;/span&gt;if (cache[intrinsicState] == null)&lt;br&gt;&lt;span style=&quot;white-space: pre;&quot;&gt;	&lt;/span&gt;&lt;span style=&quot;white-space: pre;&quot;&gt;	&lt;/span&gt;cache[intrinsicState] = new&amp;nbsp;Flyweight(intrinsicState);&lt;br&gt;&lt;br&gt;&lt;span style=&quot;white-space: pre;&quot;&gt;	&lt;/span&gt;return cache[intrinsicState];&lt;br&gt;&amp;nbsp; }" style="shape=note;whiteSpace=wrap;html=1;backgroundOutline=1;darkOpacity=0.05;size=17;align=left;verticalAlign=top;" vertex="1" parent="WIyWlLk6GJQsqaUBKTNV-1">
          <mxGeometry x="880" y="139" width="360" height="101" as="geometry" />
        </mxCell>
        <mxCell id="g5gK1ljJeK4k7wGDAAqj-23" value="" style="endArrow=none;dashed=1;html=1;rounded=0;" edge="1" parent="WIyWlLk6GJQsqaUBKTNV-1" source="g5gK1ljJeK4k7wGDAAqj-22" target="g5gK1ljJeK4k7wGDAAqj-6">
          <mxGeometry width="50" height="50" relative="1" as="geometry">
            <mxPoint x="860" y="404" as="sourcePoint" />
            <mxPoint x="915" y="360" as="targetPoint" />
          </mxGeometry>
        </mxCell>
      </root>
    </mxGraphModel>
  </diagram>
</mxfile>
